<mxfile host="65bd71144e">
    <diagram name="Page-1" id="iPtElRWPh3RuLjCkUGT1">
        <mxGraphModel dx="1250" dy="1292" grid="1" gridSize="10" guides="1" tooltips="1" connect="1" arrows="1" fold="1" page="1" pageScale="1" pageWidth="850" pageHeight="1100" math="0" shadow="0">
            <root>
                <mxCell id="0"/>
                <mxCell id="1" parent="0"/>
                <mxCell id="278" value="&lt;div style=&quot;&quot;&gt;&lt;span style=&quot;background-color: initial; color: rgb(204, 204, 204); font-family: -apple-system, BlinkMacSystemFont, &amp;quot;Segoe WPC&amp;quot;, &amp;quot;Segoe UI&amp;quot;, system-ui, Ubuntu, &amp;quot;Droid Sans&amp;quot;, sans-serif; font-size: 14px;&quot;&gt;Compliment(&lt;/span&gt;&lt;u style=&quot;background-color: initial; color: rgb(204, 204, 204); font-family: -apple-system, BlinkMacSystemFont, &amp;quot;Segoe WPC&amp;quot;, &amp;quot;Segoe UI&amp;quot;, system-ui, Ubuntu, &amp;quot;Droid Sans&amp;quot;, sans-serif; font-size: 14px;&quot;&gt;id:int&lt;/u&gt;&lt;span style=&quot;background-color: initial; color: rgb(204, 204, 204); font-family: -apple-system, BlinkMacSystemFont, &amp;quot;Segoe WPC&amp;quot;, &amp;quot;Segoe UI&amp;quot;, system-ui, Ubuntu, &amp;quot;Droid Sans&amp;quot;, sans-serif; font-size: 14px;&quot;&gt;,&amp;nbsp;makerID:int,recipientID:int,&amp;nbsp;text:string)&lt;/span&gt;&lt;/div&gt;" style="text;html=1;align=left;verticalAlign=middle;resizable=0;points=[];autosize=1;strokeColor=none;fillColor=none;" parent="1" vertex="1">
                    <mxGeometry x="280" width="380" height="30" as="geometry"/>
                </mxCell>
                <mxCell id="282" value="&lt;span style=&quot;color: rgb(204, 204, 204); font-family: -apple-system, BlinkMacSystemFont, &amp;quot;Segoe WPC&amp;quot;, &amp;quot;Segoe UI&amp;quot;, system-ui, Ubuntu, &amp;quot;Droid Sans&amp;quot;, sans-serif; font-size: 14px;&quot;&gt;Friends(&lt;/span&gt;&lt;u style=&quot;color: rgb(204, 204, 204); font-family: -apple-system, BlinkMacSystemFont, &amp;quot;Segoe WPC&amp;quot;, &amp;quot;Segoe UI&amp;quot;, system-ui, Ubuntu, &amp;quot;Droid Sans&amp;quot;, sans-serif; font-size: 14px;&quot;&gt;uid1:int&lt;/u&gt;&lt;span style=&quot;color: rgb(204, 204, 204); font-family: -apple-system, BlinkMacSystemFont, &amp;quot;Segoe WPC&amp;quot;, &amp;quot;Segoe UI&amp;quot;, system-ui, Ubuntu, &amp;quot;Droid Sans&amp;quot;, sans-serif; font-size: 14px;&quot;&gt;,&amp;nbsp;&lt;/span&gt;&lt;u style=&quot;color: rgb(204, 204, 204); font-family: -apple-system, BlinkMacSystemFont, &amp;quot;Segoe WPC&amp;quot;, &amp;quot;Segoe UI&amp;quot;, system-ui, Ubuntu, &amp;quot;Droid Sans&amp;quot;, sans-serif; font-size: 14px;&quot;&gt;uid2:int&lt;/u&gt;&lt;span style=&quot;color: rgb(204, 204, 204); font-family: -apple-system, BlinkMacSystemFont, &amp;quot;Segoe WPC&amp;quot;, &amp;quot;Segoe UI&amp;quot;, system-ui, Ubuntu, &amp;quot;Droid Sans&amp;quot;, sans-serif; font-size: 14px;&quot;&gt;)&lt;/span&gt;" style="text;html=1;align=left;verticalAlign=middle;resizable=0;points=[];autosize=1;strokeColor=none;fillColor=none;" vertex="1" parent="1">
                    <mxGeometry x="80" width="180" height="30" as="geometry"/>
                </mxCell>
                <mxCell id="283" value="C&lt;span style=&quot;color: rgb(204, 204, 204); font-family: -apple-system, BlinkMacSystemFont, &amp;quot;Segoe WPC&amp;quot;, &amp;quot;Segoe UI&amp;quot;, system-ui, Ubuntu, &amp;quot;Droid Sans&amp;quot;, sans-serif; font-size: 14px;&quot;&gt;reates(&lt;/span&gt;&lt;u style=&quot;color: rgb(204, 204, 204); font-family: -apple-system, BlinkMacSystemFont, &amp;quot;Segoe WPC&amp;quot;, &amp;quot;Segoe UI&amp;quot;, system-ui, Ubuntu, &amp;quot;Droid Sans&amp;quot;, sans-serif; font-size: 14px;&quot;&gt;mid:int&lt;/u&gt;&lt;span style=&quot;color: rgb(204, 204, 204); font-family: -apple-system, BlinkMacSystemFont, &amp;quot;Segoe WPC&amp;quot;, &amp;quot;Segoe UI&amp;quot;, system-ui, Ubuntu, &amp;quot;Droid Sans&amp;quot;, sans-serif; font-size: 14px;&quot;&gt;,&amp;nbsp;uid:int)&lt;/span&gt;" style="text;html=1;align=left;verticalAlign=middle;resizable=0;points=[];autosize=1;strokeColor=none;fillColor=none;" vertex="1" parent="1">
                    <mxGeometry x="-110" y="-20" width="170" height="30" as="geometry"/>
                </mxCell>
                <mxCell id="284" value="C&lt;span style=&quot;color: rgb(204, 204, 204); font-family: -apple-system, BlinkMacSystemFont, &amp;quot;Segoe WPC&amp;quot;, &amp;quot;Segoe UI&amp;quot;, system-ui, Ubuntu, &amp;quot;Droid Sans&amp;quot;, sans-serif; font-size: 14px;&quot;&gt;atToSubcat(cat:string,&amp;nbsp;&lt;/span&gt;&lt;u style=&quot;color: rgb(204, 204, 204); font-family: -apple-system, BlinkMacSystemFont, &amp;quot;Segoe WPC&amp;quot;, &amp;quot;Segoe UI&amp;quot;, system-ui, Ubuntu, &amp;quot;Droid Sans&amp;quot;, sans-serif; font-size: 14px;&quot;&gt;subcat:string&lt;/u&gt;&lt;span style=&quot;color: rgb(204, 204, 204); font-family: -apple-system, BlinkMacSystemFont, &amp;quot;Segoe WPC&amp;quot;, &amp;quot;Segoe UI&amp;quot;, system-ui, Ubuntu, &amp;quot;Droid Sans&amp;quot;, sans-serif; font-size: 14px;&quot;&gt;)&lt;br&gt;&lt;/span&gt;" style="text;html=1;align=left;verticalAlign=middle;resizable=0;points=[];autosize=1;strokeColor=none;fillColor=none;" vertex="1" parent="1">
                    <mxGeometry x="1061" y="370" width="260" height="30" as="geometry"/>
                </mxCell>
                <mxCell id="285" value="S&lt;span style=&quot;color: rgb(204, 204, 204); font-family: -apple-system, BlinkMacSystemFont, &amp;quot;Segoe WPC&amp;quot;, &amp;quot;Segoe UI&amp;quot;, system-ui, Ubuntu, &amp;quot;Droid Sans&amp;quot;, sans-serif; font-size: 14px;&quot;&gt;tarsB(&lt;/span&gt;&lt;u style=&quot;color: rgb(204, 204, 204); font-family: -apple-system, BlinkMacSystemFont, &amp;quot;Segoe WPC&amp;quot;, &amp;quot;Segoe UI&amp;quot;, system-ui, Ubuntu, &amp;quot;Droid Sans&amp;quot;, sans-serif; font-size: 14px;&quot;&gt;uid:int&lt;/u&gt;&lt;span style=&quot;color: rgb(204, 204, 204); font-family: -apple-system, BlinkMacSystemFont, &amp;quot;Segoe WPC&amp;quot;, &amp;quot;Segoe UI&amp;quot;, system-ui, Ubuntu, &amp;quot;Droid Sans&amp;quot;, sans-serif; font-size: 14px;&quot;&gt;,&amp;nbsp;&lt;/span&gt;&lt;u style=&quot;color: rgb(204, 204, 204); font-family: -apple-system, BlinkMacSystemFont, &amp;quot;Segoe WPC&amp;quot;, &amp;quot;Segoe UI&amp;quot;, system-ui, Ubuntu, &amp;quot;Droid Sans&amp;quot;, sans-serif; font-size: 14px;&quot;&gt;bid:int&lt;/u&gt;&lt;span style=&quot;color: rgb(204, 204, 204); font-family: -apple-system, BlinkMacSystemFont, &amp;quot;Segoe WPC&amp;quot;, &amp;quot;Segoe UI&amp;quot;, system-ui, Ubuntu, &amp;quot;Droid Sans&amp;quot;, sans-serif; font-size: 14px;&quot;&gt;)&lt;/span&gt;" style="text;html=1;align=left;verticalAlign=middle;resizable=0;points=[];autosize=1;strokeColor=none;fillColor=none;" vertex="1" parent="1">
                    <mxGeometry x="310" y="150" width="160" height="30" as="geometry"/>
                </mxCell>
                <mxCell id="287" value="S&lt;span style=&quot;color: rgb(204, 204, 204); font-family: -apple-system, BlinkMacSystemFont, &amp;quot;Segoe WPC&amp;quot;, &amp;quot;Segoe UI&amp;quot;, system-ui, Ubuntu, &amp;quot;Droid Sans&amp;quot;, sans-serif; font-size: 14px;&quot;&gt;tarsR(&lt;/span&gt;&lt;u style=&quot;color: rgb(204, 204, 204); font-family: -apple-system, BlinkMacSystemFont, &amp;quot;Segoe WPC&amp;quot;, &amp;quot;Segoe UI&amp;quot;, system-ui, Ubuntu, &amp;quot;Droid Sans&amp;quot;, sans-serif; font-size: 14px;&quot;&gt;uid:int&lt;/u&gt;&lt;span style=&quot;color: rgb(204, 204, 204); font-family: -apple-system, BlinkMacSystemFont, &amp;quot;Segoe WPC&amp;quot;, &amp;quot;Segoe UI&amp;quot;, system-ui, Ubuntu, &amp;quot;Droid Sans&amp;quot;, sans-serif; font-size: 14px;&quot;&gt;,&amp;nbsp;&lt;/span&gt;&lt;u style=&quot;color: rgb(204, 204, 204); font-family: -apple-system, BlinkMacSystemFont, &amp;quot;Segoe WPC&amp;quot;, &amp;quot;Segoe UI&amp;quot;, system-ui, Ubuntu, &amp;quot;Droid Sans&amp;quot;, sans-serif; font-size: 14px;&quot;&gt;rid:int&lt;/u&gt;&lt;span style=&quot;color: rgb(204, 204, 204); font-family: -apple-system, BlinkMacSystemFont, &amp;quot;Segoe WPC&amp;quot;, &amp;quot;Segoe UI&amp;quot;, system-ui, Ubuntu, &amp;quot;Droid Sans&amp;quot;, sans-serif; font-size: 14px;&quot;&gt;)&lt;/span&gt;" style="text;html=1;align=left;verticalAlign=middle;resizable=0;points=[];autosize=1;strokeColor=none;fillColor=none;" vertex="1" parent="1">
                    <mxGeometry x="-330" y="90" width="160" height="30" as="geometry"/>
                </mxCell>
                <mxCell id="288" value="&lt;span style=&quot;color: rgb(204, 204, 204); font-family: -apple-system, BlinkMacSystemFont, &amp;quot;Segoe WPC&amp;quot;, &amp;quot;Segoe UI&amp;quot;, system-ui, Ubuntu, &amp;quot;Droid Sans&amp;quot;, sans-serif; font-size: 14px;&quot;&gt;Likes(&lt;/span&gt;&lt;u style=&quot;color: rgb(204, 204, 204); font-family: -apple-system, BlinkMacSystemFont, &amp;quot;Segoe WPC&amp;quot;, &amp;quot;Segoe UI&amp;quot;, system-ui, Ubuntu, &amp;quot;Droid Sans&amp;quot;, sans-serif; font-size: 14px;&quot;&gt;uid:int&lt;/u&gt;&lt;span style=&quot;color: rgb(204, 204, 204); font-family: -apple-system, BlinkMacSystemFont, &amp;quot;Segoe WPC&amp;quot;, &amp;quot;Segoe UI&amp;quot;, system-ui, Ubuntu, &amp;quot;Droid Sans&amp;quot;, sans-serif; font-size: 14px;&quot;&gt;,&amp;nbsp;&lt;/span&gt;&lt;u style=&quot;color: rgb(204, 204, 204); font-family: -apple-system, BlinkMacSystemFont, &amp;quot;Segoe WPC&amp;quot;, &amp;quot;Segoe UI&amp;quot;, system-ui, Ubuntu, &amp;quot;Droid Sans&amp;quot;, sans-serif; font-size: 14px;&quot;&gt;mid:int&lt;/u&gt;&lt;span style=&quot;color: rgb(204, 204, 204); font-family: -apple-system, BlinkMacSystemFont, &amp;quot;Segoe WPC&amp;quot;, &amp;quot;Segoe UI&amp;quot;, system-ui, Ubuntu, &amp;quot;Droid Sans&amp;quot;, sans-serif; font-size: 14px;&quot;&gt;)&lt;/span&gt;" style="text;html=1;align=left;verticalAlign=middle;resizable=0;points=[];autosize=1;strokeColor=none;fillColor=none;" vertex="1" parent="1">
                    <mxGeometry x="-110" y="-50" width="150" height="30" as="geometry"/>
                </mxCell>
                <mxCell id="291" value="R&lt;span style=&quot;color: rgb(204, 204, 204); font-family: -apple-system, BlinkMacSystemFont, &amp;quot;Segoe WPC&amp;quot;, &amp;quot;Segoe UI&amp;quot;, system-ui, Ubuntu, &amp;quot;Droid Sans&amp;quot;, sans-serif; font-size: 14px;&quot;&gt;eviewHasMultimedia(&lt;/span&gt;&lt;u style=&quot;color: rgb(204, 204, 204); font-family: -apple-system, BlinkMacSystemFont, &amp;quot;Segoe WPC&amp;quot;, &amp;quot;Segoe UI&amp;quot;, system-ui, Ubuntu, &amp;quot;Droid Sans&amp;quot;, sans-serif; font-size: 14px;&quot;&gt;mid:int&lt;/u&gt;&lt;span style=&quot;color: rgb(204, 204, 204); font-family: -apple-system, BlinkMacSystemFont, &amp;quot;Segoe WPC&amp;quot;, &amp;quot;Segoe UI&amp;quot;, system-ui, Ubuntu, &amp;quot;Droid Sans&amp;quot;, sans-serif; font-size: 14px;&quot;&gt;,&amp;nbsp;rid:int)&lt;/span&gt;" style="text;html=1;align=left;verticalAlign=middle;resizable=0;points=[];autosize=1;strokeColor=none;fillColor=none;" vertex="1" parent="1">
                    <mxGeometry x="-810" y="50" width="260" height="30" as="geometry"/>
                </mxCell>
                <mxCell id="292" value="&lt;span style=&quot;color: rgb(204, 204, 204); font-family: -apple-system, BlinkMacSystemFont, &amp;quot;Segoe WPC&amp;quot;, &amp;quot;Segoe UI&amp;quot;, system-ui, Ubuntu, &amp;quot;Droid Sans&amp;quot;, sans-serif; font-size: 14px;&quot;&gt;Checkin(&lt;/span&gt;&lt;u style=&quot;color: rgb(204, 204, 204); font-family: -apple-system, BlinkMacSystemFont, &amp;quot;Segoe WPC&amp;quot;, &amp;quot;Segoe UI&amp;quot;, system-ui, Ubuntu, &amp;quot;Droid Sans&amp;quot;, sans-serif; font-size: 14px;&quot;&gt;id&lt;/u&gt;&lt;span style=&quot;color: rgb(204, 204, 204); font-family: -apple-system, BlinkMacSystemFont, &amp;quot;Segoe WPC&amp;quot;, &amp;quot;Segoe UI&amp;quot;, system-ui, Ubuntu, &amp;quot;Droid Sans&amp;quot;, sans-serif; font-size: 14px;&quot;&gt;,&amp;nbsp;&lt;/span&gt;uid&lt;span style=&quot;color: rgb(204, 204, 204); font-family: -apple-system, BlinkMacSystemFont, &amp;quot;Segoe WPC&amp;quot;, &amp;quot;Segoe UI&amp;quot;, system-ui, Ubuntu, &amp;quot;Droid Sans&amp;quot;, sans-serif; font-size: 14px;&quot;&gt;,&amp;nbsp;&lt;/span&gt;bid&lt;span style=&quot;color: rgb(204, 204, 204); font-family: -apple-system, BlinkMacSystemFont, &amp;quot;Segoe WPC&amp;quot;, &amp;quot;Segoe UI&amp;quot;, system-ui, Ubuntu, &amp;quot;Droid Sans&amp;quot;, sans-serif; font-size: 14px;&quot;&gt;,&amp;nbsp;&lt;/span&gt;checkinfo:string&lt;span style=&quot;color: rgb(204, 204, 204); font-family: -apple-system, BlinkMacSystemFont, &amp;quot;Segoe WPC&amp;quot;, &amp;quot;Segoe UI&amp;quot;, system-ui, Ubuntu, &amp;quot;Droid Sans&amp;quot;, sans-serif; font-size: 14px;&quot;&gt;)&lt;/span&gt;" style="text;html=1;align=left;verticalAlign=middle;resizable=0;points=[];autosize=1;strokeColor=none;fillColor=none;" vertex="1" parent="1">
                    <mxGeometry x="80" y="150" width="230" height="30" as="geometry"/>
                </mxCell>
                <mxCell id="293" value="V&lt;span style=&quot;color: rgb(204, 204, 204); font-family: -apple-system, BlinkMacSystemFont, &amp;quot;Segoe WPC&amp;quot;, &amp;quot;Segoe UI&amp;quot;, system-ui, Ubuntu, &amp;quot;Droid Sans&amp;quot;, sans-serif; font-size: 14px;&quot;&gt;otes(&lt;/span&gt;&lt;u&gt;uid:int&lt;/u&gt;&lt;span style=&quot;color: rgb(204, 204, 204); font-family: -apple-system, BlinkMacSystemFont, &amp;quot;Segoe WPC&amp;quot;, &amp;quot;Segoe UI&amp;quot;, system-ui, Ubuntu, &amp;quot;Droid Sans&amp;quot;, sans-serif; font-size: 14px;&quot;&gt;,&amp;nbsp;&lt;/span&gt;&lt;u&gt;rid:int&lt;/u&gt;&lt;span style=&quot;color: rgb(204, 204, 204); font-family: -apple-system, BlinkMacSystemFont, &amp;quot;Segoe WPC&amp;quot;, &amp;quot;Segoe UI&amp;quot;, system-ui, Ubuntu, &amp;quot;Droid Sans&amp;quot;, sans-serif; font-size: 14px;&quot;&gt;, useful:bool)&lt;/span&gt;" style="text;html=1;align=left;verticalAlign=middle;resizable=0;points=[];autosize=1;strokeColor=none;fillColor=none;" vertex="1" parent="1">
                    <mxGeometry x="-190" y="90" width="210" height="30" as="geometry"/>
                </mxCell>
                <mxCell id="294" value="&lt;span style=&quot;border-color: rgb(0, 0, 0); font-style: normal; font-variant-ligatures: normal; font-variant-caps: normal; font-weight: 400; letter-spacing: normal; orphans: 2; text-indent: 0px; text-transform: none; widows: 2; word-spacing: 0px; -webkit-text-stroke-width: 0px; background-color: initial; text-decoration-thickness: initial; text-decoration-style: initial; text-decoration-color: initial; color: rgb(204, 204, 204); font-family: -apple-system, BlinkMacSystemFont, &amp;quot;Segoe WPC&amp;quot;, &amp;quot;Segoe UI&amp;quot;, system-ui, Ubuntu, &amp;quot;Droid Sans&amp;quot;, sans-serif; font-size: 14px;&quot;&gt;User(&lt;/span&gt;&lt;u style=&quot;border-color: rgb(0, 0, 0); font-style: normal; font-variant-ligatures: normal; font-variant-caps: normal; font-weight: 400; letter-spacing: normal; orphans: 2; text-indent: 0px; text-transform: none; widows: 2; word-spacing: 0px; -webkit-text-stroke-width: 0px; background-color: initial; color: rgb(204, 204, 204); font-family: -apple-system, BlinkMacSystemFont, &amp;quot;Segoe WPC&amp;quot;, &amp;quot;Segoe UI&amp;quot;, system-ui, Ubuntu, &amp;quot;Droid Sans&amp;quot;, sans-serif; font-size: 14px;&quot;&gt;id:int&lt;/u&gt;&lt;span style=&quot;border-color: rgb(0, 0, 0); font-style: normal; font-variant-ligatures: normal; font-variant-caps: normal; font-weight: 400; letter-spacing: normal; orphans: 2; text-indent: 0px; text-transform: none; widows: 2; word-spacing: 0px; -webkit-text-stroke-width: 0px; background-color: initial; text-decoration-thickness: initial; text-decoration-style: initial; text-decoration-color: initial; color: rgb(204, 204, 204); font-family: -apple-system, BlinkMacSystemFont, &amp;quot;Segoe WPC&amp;quot;, &amp;quot;Segoe UI&amp;quot;, system-ui, Ubuntu, &amp;quot;Droid Sans&amp;quot;, sans-serif; font-size: 14px;&quot;&gt;,&amp;nbsp;email:string,&amp;nbsp;dateOfBirth:Date,&amp;nbsp;gender:string,&amp;nbsp;birthPlace:string,&amp;nbsp;lastName:string,&amp;nbsp;firstName:string)&lt;/span&gt;" style="text;whiteSpace=wrap;html=1;align=left;" vertex="1" parent="1">
                    <mxGeometry x="80" y="90" width="680" height="30" as="geometry"/>
                </mxCell>
                <mxCell id="295" value="&lt;span style=&quot;border-color: rgb(0, 0, 0); color: rgb(204, 204, 204); font-family: -apple-system, BlinkMacSystemFont, &amp;quot;Segoe WPC&amp;quot;, &amp;quot;Segoe UI&amp;quot;, system-ui, Ubuntu, &amp;quot;Droid Sans&amp;quot;, sans-serif; font-size: 14px; font-style: normal; font-variant-ligatures: normal; font-variant-caps: normal; font-weight: 400; letter-spacing: normal; orphans: 2; text-indent: 0px; text-transform: none; widows: 2; word-spacing: 0px; -webkit-text-stroke-width: 0px; background-color: initial; text-decoration-thickness: initial; text-decoration-style: initial; text-decoration-color: initial;&quot;&gt;Comment(&lt;/span&gt;&lt;u style=&quot;border-color: rgb(0, 0, 0); color: rgb(204, 204, 204); font-family: -apple-system, BlinkMacSystemFont, &amp;quot;Segoe WPC&amp;quot;, &amp;quot;Segoe UI&amp;quot;, system-ui, Ubuntu, &amp;quot;Droid Sans&amp;quot;, sans-serif; font-size: 14px; font-style: normal; font-variant-ligatures: normal; font-variant-caps: normal; font-weight: 400; letter-spacing: normal; orphans: 2; text-indent: 0px; text-transform: none; widows: 2; word-spacing: 0px; -webkit-text-stroke-width: 0px; background-color: initial;&quot;&gt;id:int&lt;/u&gt;&lt;span style=&quot;border-color: rgb(0, 0, 0); color: rgb(204, 204, 204); font-family: -apple-system, BlinkMacSystemFont, &amp;quot;Segoe WPC&amp;quot;, &amp;quot;Segoe UI&amp;quot;, system-ui, Ubuntu, &amp;quot;Droid Sans&amp;quot;, sans-serif; font-size: 14px; font-style: normal; font-variant-ligatures: normal; font-variant-caps: normal; font-weight: 400; letter-spacing: normal; orphans: 2; text-indent: 0px; text-transform: none; widows: 2; word-spacing: 0px; -webkit-text-stroke-width: 0px; background-color: initial; text-decoration-thickness: initial; text-decoration-style: initial; text-decoration-color: initial;&quot;&gt;,&amp;nbsp;rid,&amp;nbsp;author,&amp;nbsp;date,&amp;nbsp;textContent)&lt;/span&gt;" style="text;whiteSpace=wrap;html=1;align=left;" vertex="1" parent="1">
                    <mxGeometry x="-630" y="90" width="310" height="30" as="geometry"/>
                </mxCell>
                <mxCell id="324" style="edgeStyle=orthogonalEdgeStyle;html=1;exitX=0.25;exitY=1;exitDx=0;exitDy=0;entryX=0;entryY=0.5;entryDx=0;entryDy=0;" edge="1" parent="1" source="296" target="302">
                    <mxGeometry relative="1" as="geometry"/>
                </mxCell>
                <mxCell id="296" value="&lt;span style=&quot;border-color: rgb(0, 0, 0); color: rgb(204, 204, 204); font-family: -apple-system, BlinkMacSystemFont, &amp;quot;Segoe WPC&amp;quot;, &amp;quot;Segoe UI&amp;quot;, system-ui, Ubuntu, &amp;quot;Droid Sans&amp;quot;, sans-serif; font-size: 14px; background-color: initial;&quot;&gt;&lt;div style=&quot;border-color: rgb(0, 0, 0);&quot;&gt;&lt;span style=&quot;border-color: rgb(0, 0, 0); background-color: initial;&quot;&gt;Review(&lt;/span&gt;&lt;u style=&quot;border-color: rgb(0, 0, 0); background-color: initial;&quot;&gt;id&lt;/u&gt;&lt;span style=&quot;border-color: rgb(0, 0, 0); background-color: initial;&quot;&gt;,&amp;nbsp;bid,&amp;nbsp;author,&amp;nbsp;publishDate,&amp;nbsp;textContent)&lt;/span&gt;&lt;/div&gt;&lt;/span&gt;&lt;span style=&quot;border-color: rgb(0, 0, 0); color: rgb(204, 204, 204); font-family: -apple-system, BlinkMacSystemFont, &amp;quot;Segoe WPC&amp;quot;, &amp;quot;Segoe UI&amp;quot;, system-ui, Ubuntu, &amp;quot;Droid Sans&amp;quot;, sans-serif; font-size: 14px; background-color: initial;&quot;&gt;&lt;div style=&quot;border-color: rgb(0, 0, 0);&quot;&gt;&lt;br style=&quot;border-color: rgb(0, 0, 0); color: rgb(204, 204, 204); font-family: -apple-system, BlinkMacSystemFont, &amp;quot;Segoe WPC&amp;quot;, &amp;quot;Segoe UI&amp;quot;, system-ui, Ubuntu, &amp;quot;Droid Sans&amp;quot;, sans-serif; font-size: 14px; font-style: normal; font-variant-ligatures: normal; font-variant-caps: normal; font-weight: 400; letter-spacing: normal; orphans: 2; text-indent: 0px; text-transform: none; widows: 2; word-spacing: 0px; -webkit-text-stroke-width: 0px; background-color: rgb(42, 37, 47); text-decoration-thickness: initial; text-decoration-style: initial; text-decoration-color: initial;&quot;&gt;&lt;/div&gt;&lt;/span&gt;" style="text;whiteSpace=wrap;html=1;align=left;" vertex="1" parent="1">
                    <mxGeometry x="-350" y="170" width="310" height="30" as="geometry"/>
                </mxCell>
                <mxCell id="297" value="&lt;span style=&quot;border-color: rgb(0, 0, 0); color: rgb(204, 204, 204); font-family: -apple-system, BlinkMacSystemFont, &amp;quot;Segoe WPC&amp;quot;, &amp;quot;Segoe UI&amp;quot;, system-ui, Ubuntu, &amp;quot;Droid Sans&amp;quot;, sans-serif; font-size: 14px; background-color: initial;&quot;&gt;&lt;div style=&quot;border-color: rgb(0, 0, 0);&quot;&gt;&lt;span style=&quot;border-color: rgb(0, 0, 0); background-color: initial;&quot;&gt;TimeRange(&lt;/span&gt;&lt;u style=&quot;border-color: rgb(0, 0, 0); background-color: initial;&quot;&gt;id&lt;/u&gt;&lt;span style=&quot;border-color: rgb(0, 0, 0); background-color: initial;&quot;&gt;,&amp;nbsp;start:Time,&amp;nbsp;end:Time)&lt;/span&gt;&lt;/div&gt;&lt;/span&gt;" style="text;whiteSpace=wrap;html=1;align=left;" vertex="1" parent="1">
                    <mxGeometry x="80" y="410" width="510" height="30" as="geometry"/>
                </mxCell>
                <mxCell id="298" value="&lt;span style=&quot;border-color: rgb(0, 0, 0); color: rgb(204, 204, 204); font-family: -apple-system, BlinkMacSystemFont, &amp;quot;Segoe WPC&amp;quot;, &amp;quot;Segoe UI&amp;quot;, system-ui, Ubuntu, &amp;quot;Droid Sans&amp;quot;, sans-serif; font-size: 14px; background-color: initial;&quot;&gt;&lt;div style=&quot;border-color: rgb(0, 0, 0);&quot;&gt;&lt;span style=&quot;border-color: rgb(0, 0, 0); background-color: initial;&quot;&gt;ExceptionSchedule(&lt;/span&gt;&lt;u style=&quot;border-color: rgb(0, 0, 0); background-color: initial;&quot;&gt;bid:int&lt;/u&gt;&lt;span style=&quot;border-color: rgb(0, 0, 0); background-color: initial;&quot;&gt;,&amp;nbsp;&lt;/span&gt;&lt;u style=&quot;border-color: rgb(0, 0, 0); background-color: initial;&quot;&gt;date:Date&lt;/u&gt;&lt;span style=&quot;border-color: rgb(0, 0, 0); background-color: initial;&quot;&gt;,&amp;nbsp;hours:int,&amp;nbsp;break:int)&lt;/span&gt;&lt;/div&gt;&lt;/span&gt;&lt;span style=&quot;border-color: rgb(0, 0, 0); color: rgb(204, 204, 204); font-family: -apple-system, BlinkMacSystemFont, &amp;quot;Segoe WPC&amp;quot;, &amp;quot;Segoe UI&amp;quot;, system-ui, Ubuntu, &amp;quot;Droid Sans&amp;quot;, sans-serif; font-size: 14px; background-color: initial;&quot;&gt;&lt;div style=&quot;border-color: rgb(0, 0, 0);&quot;&gt;&lt;br style=&quot;border-color: rgb(0, 0, 0); color: rgb(204, 204, 204); font-family: -apple-system, BlinkMacSystemFont, &amp;quot;Segoe WPC&amp;quot;, &amp;quot;Segoe UI&amp;quot;, system-ui, Ubuntu, &amp;quot;Droid Sans&amp;quot;, sans-serif; font-size: 14px; font-style: normal; font-variant-ligatures: normal; font-variant-caps: normal; font-weight: 400; letter-spacing: normal; orphans: 2; text-indent: 0px; text-transform: none; widows: 2; word-spacing: 0px; -webkit-text-stroke-width: 0px; background-color: rgb(42, 37, 47); text-decoration-thickness: initial; text-decoration-style: initial; text-decoration-color: initial;&quot;&gt;&lt;/div&gt;&lt;/span&gt;" style="text;whiteSpace=wrap;html=1;align=left;" vertex="1" parent="1">
                    <mxGeometry x="410" y="330" width="360" height="30" as="geometry"/>
                </mxCell>
                <mxCell id="299" value="&lt;span style=&quot;border-color: rgb(0, 0, 0); color: rgb(204, 204, 204); font-family: -apple-system, BlinkMacSystemFont, &amp;quot;Segoe WPC&amp;quot;, &amp;quot;Segoe UI&amp;quot;, system-ui, Ubuntu, &amp;quot;Droid Sans&amp;quot;, sans-serif; font-size: 14px; background-color: initial;&quot;&gt;&lt;div style=&quot;border-color: rgb(0, 0, 0);&quot;&gt;&lt;span style=&quot;border-color: rgb(0, 0, 0); background-color: initial;&quot;&gt;Schedule(&lt;/span&gt;&lt;u style=&quot;border-color: rgb(0, 0, 0); background-color: initial;&quot;&gt;bid:int&lt;/u&gt;&lt;span style=&quot;border-color: rgb(0, 0, 0); background-color: initial;&quot;&gt;,&amp;nbsp;&lt;/span&gt;&lt;u style=&quot;border-color: rgb(0, 0, 0); background-color: initial;&quot;&gt;dayOfWeek:&lt;/u&gt;&lt;span style=&quot;border-color: rgb(0, 0, 0); background-color: initial;&quot;&gt;,&amp;nbsp;hours:int,&amp;nbsp;break:int)&lt;/span&gt;&lt;/div&gt;&lt;/span&gt;&lt;span style=&quot;border-color: rgb(0, 0, 0); color: rgb(204, 204, 204); font-family: -apple-system, BlinkMacSystemFont, &amp;quot;Segoe WPC&amp;quot;, &amp;quot;Segoe UI&amp;quot;, system-ui, Ubuntu, &amp;quot;Droid Sans&amp;quot;, sans-serif; font-size: 14px; background-color: initial;&quot;&gt;&lt;div style=&quot;border-color: rgb(0, 0, 0);&quot;&gt;&lt;br style=&quot;border-color: rgb(0, 0, 0); color: rgb(204, 204, 204); font-family: -apple-system, BlinkMacSystemFont, &amp;quot;Segoe WPC&amp;quot;, &amp;quot;Segoe UI&amp;quot;, system-ui, Ubuntu, &amp;quot;Droid Sans&amp;quot;, sans-serif; font-size: 14px; font-style: normal; font-variant-ligatures: normal; font-variant-caps: normal; font-weight: 400; letter-spacing: normal; orphans: 2; text-indent: 0px; text-transform: none; widows: 2; word-spacing: 0px; -webkit-text-stroke-width: 0px; background-color: rgb(42, 37, 47); text-decoration-thickness: initial; text-decoration-style: initial; text-decoration-color: initial;&quot;&gt;&lt;/div&gt;&lt;/span&gt;" style="text;whiteSpace=wrap;html=1;align=left;" vertex="1" parent="1">
                    <mxGeometry x="80" y="330" width="500" height="30" as="geometry"/>
                </mxCell>
                <mxCell id="300" value="&lt;span style=&quot;border-color: rgb(0, 0, 0); color: rgb(204, 204, 204); font-family: -apple-system, BlinkMacSystemFont, &amp;quot;Segoe WPC&amp;quot;, &amp;quot;Segoe UI&amp;quot;, system-ui, Ubuntu, &amp;quot;Droid Sans&amp;quot;, sans-serif; font-size: 14px; background-color: initial;&quot;&gt;&lt;div style=&quot;border-color: rgb(0, 0, 0);&quot;&gt;&lt;span style=&quot;border-color: rgb(0, 0, 0); background-color: initial;&quot;&gt;Subcategory(&lt;/span&gt;&lt;u style=&quot;border-color: rgb(0, 0, 0); background-color: initial;&quot;&gt;type:string&lt;/u&gt;&lt;span style=&quot;border-color: rgb(0, 0, 0); background-color: initial;&quot;&gt;)&lt;/span&gt;&lt;/div&gt;&lt;/span&gt;&lt;span style=&quot;border-color: rgb(0, 0, 0); color: rgb(204, 204, 204); font-family: -apple-system, BlinkMacSystemFont, &amp;quot;Segoe WPC&amp;quot;, &amp;quot;Segoe UI&amp;quot;, system-ui, Ubuntu, &amp;quot;Droid Sans&amp;quot;, sans-serif; font-size: 14px; background-color: initial;&quot;&gt;&lt;div style=&quot;border-color: rgb(0, 0, 0);&quot;&gt;&lt;br style=&quot;border-color: rgb(0, 0, 0); color: rgb(204, 204, 204); font-family: -apple-system, BlinkMacSystemFont, &amp;quot;Segoe WPC&amp;quot;, &amp;quot;Segoe UI&amp;quot;, system-ui, Ubuntu, &amp;quot;Droid Sans&amp;quot;, sans-serif; font-size: 14px; font-style: normal; font-variant-ligatures: normal; font-variant-caps: normal; font-weight: 400; letter-spacing: normal; orphans: 2; text-indent: 0px; text-transform: none; widows: 2; word-spacing: 0px; -webkit-text-stroke-width: 0px; background-color: rgb(42, 37, 47); text-decoration-thickness: initial; text-decoration-style: initial; text-decoration-color: initial;&quot;&gt;&lt;/div&gt;&lt;/span&gt;" style="text;whiteSpace=wrap;html=1;align=left;" vertex="1" parent="1">
                    <mxGeometry x="849" y="400" width="160" height="30" as="geometry"/>
                </mxCell>
                <mxCell id="301" value="&lt;span style=&quot;border-color: rgb(0, 0, 0); color: rgb(204, 204, 204); font-family: -apple-system, BlinkMacSystemFont, &amp;quot;Segoe WPC&amp;quot;, &amp;quot;Segoe UI&amp;quot;, system-ui, Ubuntu, &amp;quot;Droid Sans&amp;quot;, sans-serif; font-size: 14px; background-color: initial;&quot;&gt;&lt;div style=&quot;border-color: rgb(0, 0, 0);&quot;&gt;&lt;span style=&quot;border-color: rgb(0, 0, 0); background-color: initial;&quot;&gt;BusinessCategory(&lt;/span&gt;&lt;u style=&quot;border-color: rgb(0, 0, 0); background-color: initial;&quot;&gt;type:string&lt;/u&gt;&lt;span style=&quot;border-color: rgb(0, 0, 0); background-color: initial;&quot;&gt;)&lt;/span&gt;&lt;/div&gt;&lt;/span&gt;&lt;span style=&quot;border-color: rgb(0, 0, 0); color: rgb(204, 204, 204); font-family: -apple-system, BlinkMacSystemFont, &amp;quot;Segoe WPC&amp;quot;, &amp;quot;Segoe UI&amp;quot;, system-ui, Ubuntu, &amp;quot;Droid Sans&amp;quot;, sans-serif; font-size: 14px; background-color: initial;&quot;&gt;&lt;div style=&quot;border-color: rgb(0, 0, 0);&quot;&gt;&lt;br style=&quot;border-color: rgb(0, 0, 0); color: rgb(204, 204, 204); font-family: -apple-system, BlinkMacSystemFont, &amp;quot;Segoe WPC&amp;quot;, &amp;quot;Segoe UI&amp;quot;, system-ui, Ubuntu, &amp;quot;Droid Sans&amp;quot;, sans-serif; font-size: 14px; font-style: normal; font-variant-ligatures: normal; font-variant-caps: normal; font-weight: 400; letter-spacing: normal; orphans: 2; text-indent: 0px; text-transform: none; widows: 2; word-spacing: 0px; -webkit-text-stroke-width: 0px; background-color: rgb(42, 37, 47); text-decoration-thickness: initial; text-decoration-style: initial; text-decoration-color: initial;&quot;&gt;&lt;/div&gt;&lt;/span&gt;" style="text;whiteSpace=wrap;html=1;align=left;" vertex="1" parent="1">
                    <mxGeometry x="840" y="360" width="200" height="30" as="geometry"/>
                </mxCell>
                <mxCell id="302" value="&lt;span style=&quot;border-color: rgb(0, 0, 0); color: rgb(204, 204, 204); font-family: -apple-system, BlinkMacSystemFont, &amp;quot;Segoe WPC&amp;quot;, &amp;quot;Segoe UI&amp;quot;, system-ui, Ubuntu, &amp;quot;Droid Sans&amp;quot;, sans-serif; font-size: 14px; background-color: initial;&quot;&gt;&lt;div style=&quot;border-color: rgb(0, 0, 0);&quot;&gt;&lt;span style=&quot;border-color: rgb(0, 0, 0); background-color: initial;&quot;&gt;Business(&lt;/span&gt;&lt;u style=&quot;border-color: rgb(0, 0, 0); background-color: initial;&quot;&gt;bid:int&lt;/u&gt;&lt;span style=&quot;border-color: rgb(0, 0, 0); background-color: initial;&quot;&gt;, parkingType:String, ambiance:String, zipcode:int,&amp;nbsp;lat:int,&amp;nbsp;long:int,&amp;nbsp;streetAddress:string, state:string,&amp;nbsp;category:string)&lt;/span&gt;&lt;/div&gt;&lt;/span&gt;&lt;span style=&quot;border-color: rgb(0, 0, 0); color: rgb(204, 204, 204); font-family: -apple-system, BlinkMacSystemFont, &amp;quot;Segoe WPC&amp;quot;, &amp;quot;Segoe UI&amp;quot;, system-ui, Ubuntu, &amp;quot;Droid Sans&amp;quot;, sans-serif; font-size: 14px; background-color: initial;&quot;&gt;&lt;div style=&quot;border-color: rgb(0, 0, 0);&quot;&gt;&lt;br style=&quot;border-color: rgb(0, 0, 0); color: rgb(204, 204, 204); font-family: -apple-system, BlinkMacSystemFont, &amp;quot;Segoe WPC&amp;quot;, &amp;quot;Segoe UI&amp;quot;, system-ui, Ubuntu, &amp;quot;Droid Sans&amp;quot;, sans-serif; font-size: 14px; font-style: normal; font-variant-ligatures: normal; font-variant-caps: normal; font-weight: 400; letter-spacing: normal; orphans: 2; text-indent: 0px; text-transform: none; widows: 2; word-spacing: 0px; -webkit-text-stroke-width: 0px; background-color: rgb(42, 37, 47); text-decoration-thickness: initial; text-decoration-style: initial; text-decoration-color: initial;&quot;&gt;&lt;/div&gt;&lt;/span&gt;" style="text;whiteSpace=wrap;html=1;align=left;" vertex="1" parent="1">
                    <mxGeometry x="80" y="210" width="1380" height="30" as="geometry"/>
                </mxCell>
                <mxCell id="303" value="&lt;span style=&quot;border-color: rgb(0, 0, 0); color: rgb(204, 204, 204); font-family: -apple-system, BlinkMacSystemFont, &amp;quot;Segoe WPC&amp;quot;, &amp;quot;Segoe UI&amp;quot;, system-ui, Ubuntu, &amp;quot;Droid Sans&amp;quot;, sans-serif; font-size: 14px; background-color: initial;&quot;&gt;&lt;div style=&quot;border-color: rgb(0, 0, 0);&quot;&gt;&lt;span style=&quot;border-color: rgb(0, 0, 0); background-color: initial;&quot;&gt;Multimedia(&lt;/span&gt;&lt;u style=&quot;border-color: rgb(0, 0, 0); background-color: initial;&quot;&gt;id:int&lt;/u&gt;&lt;span style=&quot;border-color: rgb(0, 0, 0); background-color: initial;&quot;&gt;, description:string, location:string,&amp;nbsp;type:string,&amp;nbsp;privacy:string,&amp;nbsp;uAuthor:int,&amp;nbsp;bAuthor:int,&amp;nbsp;media:longBlob)&lt;/span&gt;&lt;/div&gt;&lt;/span&gt;" style="text;whiteSpace=wrap;html=1;align=left;" vertex="1" parent="1">
                    <mxGeometry x="-720" y="-110" width="755" height="30" as="geometry"/>
                </mxCell>
                <mxCell id="305" value="" style="edgeStyle=segmentEdgeStyle;endArrow=classic;html=1;curved=0;rounded=0;endSize=8;startSize=8;sourcePerimeterSpacing=0;targetPerimeterSpacing=0;exitX=0.437;exitY=1.033;exitDx=0;exitDy=0;exitPerimeter=0;entryX=0;entryY=0.25;entryDx=0;entryDy=0;" edge="1" parent="1" source="299" target="297">
                    <mxGeometry width="100" relative="1" as="geometry">
                        <mxPoint x="-20" y="250" as="sourcePoint"/>
                        <mxPoint x="80" y="290" as="targetPoint"/>
                        <Array as="points">
                            <mxPoint x="299" y="380"/>
                            <mxPoint x="80" y="380"/>
                        </Array>
                    </mxGeometry>
                </mxCell>
                <mxCell id="306" value="" style="edgeStyle=segmentEdgeStyle;endArrow=classic;html=1;curved=0;rounded=0;endSize=8;startSize=8;sourcePerimeterSpacing=0;targetPerimeterSpacing=0;exitX=0.565;exitY=1.067;exitDx=0;exitDy=0;exitPerimeter=0;entryX=0.029;entryY=0;entryDx=0;entryDy=0;entryPerimeter=0;" edge="1" parent="1" source="299" target="297">
                    <mxGeometry width="100" relative="1" as="geometry">
                        <mxPoint x="308.5" y="370.99" as="sourcePoint"/>
                        <mxPoint x="90" y="387.5" as="targetPoint"/>
                        <Array as="points">
                            <mxPoint x="363" y="390"/>
                            <mxPoint x="95" y="390"/>
                            <mxPoint x="95" y="410"/>
                        </Array>
                    </mxGeometry>
                </mxCell>
                <mxCell id="307" value="" style="edgeStyle=segmentEdgeStyle;endArrow=classic;html=1;curved=0;rounded=0;endSize=8;startSize=8;sourcePerimeterSpacing=0;targetPerimeterSpacing=0;exitX=0.5;exitY=-0.022;exitDx=0;exitDy=0;exitPerimeter=0;entryX=0.1;entryY=0;entryDx=0;entryDy=0;entryPerimeter=0;" edge="1" parent="1" target="301">
                    <mxGeometry width="100" relative="1" as="geometry">
                        <mxPoint x="1189" y="369.34000000000015" as="sourcePoint"/>
                        <mxPoint x="939" y="290" as="targetPoint"/>
                        <Array as="points">
                            <mxPoint x="1189" y="360"/>
                            <mxPoint x="1049" y="360"/>
                            <mxPoint x="1049" y="340"/>
                            <mxPoint x="860" y="340"/>
                        </Array>
                    </mxGeometry>
                </mxCell>
                <mxCell id="308" value="" style="edgeStyle=segmentEdgeStyle;endArrow=classic;html=1;curved=0;rounded=0;endSize=8;startSize=8;sourcePerimeterSpacing=0;targetPerimeterSpacing=0;exitX=0.692;exitY=1.044;exitDx=0;exitDy=0;exitPerimeter=0;entryX=0.075;entryY=1.067;entryDx=0;entryDy=0;entryPerimeter=0;" edge="1" parent="1" target="300">
                    <mxGeometry width="100" relative="1" as="geometry">
                        <mxPoint x="1238.92" y="401.31999999999994" as="sourcePoint"/>
                        <mxPoint x="780" y="450" as="targetPoint"/>
                        <Array as="points">
                            <mxPoint x="1239" y="420"/>
                            <mxPoint x="1049" y="420"/>
                            <mxPoint x="1049" y="460"/>
                            <mxPoint x="861" y="460"/>
                        </Array>
                    </mxGeometry>
                </mxCell>
                <mxCell id="309" value="" style="edgeStyle=segmentEdgeStyle;endArrow=classic;html=1;curved=0;rounded=0;endSize=8;startSize=8;sourcePerimeterSpacing=0;targetPerimeterSpacing=0;entryX=0;entryY=0;entryDx=0;entryDy=0;exitX=0.551;exitY=1.067;exitDx=0;exitDy=0;exitPerimeter=0;" edge="1" parent="1" source="302" target="301">
                    <mxGeometry width="100" relative="1" as="geometry">
                        <mxPoint x="850" y="270" as="sourcePoint"/>
                        <mxPoint x="340" y="280" as="targetPoint"/>
                        <Array as="points">
                            <mxPoint x="840" y="330"/>
                            <mxPoint x="840" y="360"/>
                        </Array>
                    </mxGeometry>
                </mxCell>
                <mxCell id="310" value="" style="edgeStyle=segmentEdgeStyle;endArrow=classic;html=1;curved=0;rounded=0;endSize=8;startSize=8;sourcePerimeterSpacing=0;targetPerimeterSpacing=0;exitX=0.437;exitY=1.033;exitDx=0;exitDy=0;exitPerimeter=0;entryX=0.031;entryY=1.133;entryDx=0;entryDy=0;entryPerimeter=0;" edge="1" parent="1" target="297">
                    <mxGeometry width="100" relative="1" as="geometry">
                        <mxPoint x="667.23" y="360" as="sourcePoint"/>
                        <mxPoint x="80" y="450" as="targetPoint"/>
                        <Array as="points">
                            <mxPoint x="667" y="379"/>
                            <mxPoint x="400" y="379"/>
                            <mxPoint x="400" y="460"/>
                            <mxPoint x="96" y="460"/>
                        </Array>
                    </mxGeometry>
                </mxCell>
                <mxCell id="311" value="" style="edgeStyle=segmentEdgeStyle;endArrow=classic;html=1;curved=0;rounded=0;endSize=8;startSize=8;sourcePerimeterSpacing=0;targetPerimeterSpacing=0;exitX=0.565;exitY=1.067;exitDx=0;exitDy=0;exitPerimeter=0;entryX=0;entryY=1;entryDx=0;entryDy=0;" edge="1" parent="1" target="297">
                    <mxGeometry width="100" relative="1" as="geometry">
                        <mxPoint x="731.23" y="361.02" as="sourcePoint"/>
                        <mxPoint x="463.52" y="409.01" as="targetPoint"/>
                        <Array as="points">
                            <mxPoint x="731" y="389"/>
                            <mxPoint x="410" y="389"/>
                            <mxPoint x="410" y="470"/>
                            <mxPoint x="80" y="470"/>
                        </Array>
                    </mxGeometry>
                </mxCell>
                <mxCell id="315" value="" style="edgeStyle=segmentEdgeStyle;endArrow=classic;html=1;curved=0;rounded=0;endSize=8;startSize=8;sourcePerimeterSpacing=0;targetPerimeterSpacing=0;entryX=0;entryY=1;entryDx=0;entryDy=0;exitX=0.153;exitY=0;exitDx=0;exitDy=0;exitPerimeter=0;" edge="1" parent="1" source="299" target="302">
                    <mxGeometry width="100" relative="1" as="geometry">
                        <mxPoint x="590" y="290" as="sourcePoint"/>
                        <mxPoint x="50" y="270" as="targetPoint"/>
                        <Array as="points">
                            <mxPoint x="157" y="320"/>
                            <mxPoint x="80" y="320"/>
                        </Array>
                    </mxGeometry>
                </mxCell>
                <mxCell id="316" value="" style="edgeStyle=segmentEdgeStyle;endArrow=classic;html=1;curved=0;rounded=0;endSize=8;startSize=8;sourcePerimeterSpacing=0;targetPerimeterSpacing=0;entryX=0;entryY=1;entryDx=0;entryDy=0;exitX=0.937;exitY=-0.044;exitDx=0;exitDy=0;exitPerimeter=0;" edge="1" parent="1" source="299">
                    <mxGeometry width="100" relative="1" as="geometry">
                        <mxPoint x="183.5" y="330" as="sourcePoint"/>
                        <mxPoint x="107.00000000000318" y="240" as="targetPoint"/>
                        <Array as="points">
                            <mxPoint x="549" y="310"/>
                            <mxPoint x="107" y="310"/>
                        </Array>
                    </mxGeometry>
                </mxCell>
                <mxCell id="318" value="" style="edgeStyle=segmentEdgeStyle;endArrow=classic;html=1;curved=0;rounded=0;endSize=8;startSize=8;sourcePerimeterSpacing=0;targetPerimeterSpacing=0;entryX=0;entryY=0;entryDx=0;entryDy=0;exitX=0.462;exitY=1.067;exitDx=0;exitDy=0;exitPerimeter=0;" edge="1" parent="1" source="292" target="302">
                    <mxGeometry width="100" relative="1" as="geometry">
                        <mxPoint x="-30" y="175" as="sourcePoint"/>
                        <mxPoint x="70" y="215" as="targetPoint"/>
                        <Array as="points">
                            <mxPoint x="186" y="190"/>
                            <mxPoint x="80" y="190"/>
                        </Array>
                    </mxGeometry>
                </mxCell>
                <mxCell id="319" value="" style="edgeStyle=segmentEdgeStyle;endArrow=classic;html=1;curved=0;rounded=0;endSize=8;startSize=8;sourcePerimeterSpacing=0;targetPerimeterSpacing=0;entryX=0.013;entryY=-0.022;entryDx=0;entryDy=0;exitX=0.719;exitY=1.044;exitDx=0;exitDy=0;exitPerimeter=0;entryPerimeter=0;" edge="1" parent="1" source="285" target="302">
                    <mxGeometry width="100" relative="1" as="geometry">
                        <mxPoint x="316.26" y="182.0100000000001" as="sourcePoint"/>
                        <mxPoint x="210.0000000000075" y="210" as="targetPoint"/>
                        <Array as="points">
                            <mxPoint x="425" y="200"/>
                            <mxPoint x="98" y="200"/>
                        </Array>
                    </mxGeometry>
                </mxCell>
                <mxCell id="320" value="" style="edgeStyle=segmentEdgeStyle;endArrow=classic;html=1;curved=0;rounded=0;endSize=8;startSize=8;sourcePerimeterSpacing=0;targetPerimeterSpacing=0;exitX=0.413;exitY=1.067;exitDx=0;exitDy=0;exitPerimeter=0;entryX=0.036;entryY=0.022;entryDx=0;entryDy=0;entryPerimeter=0;" edge="1" parent="1" source="282" target="294">
                    <mxGeometry width="100" relative="1" as="geometry">
                        <mxPoint x="206.25999999999976" y="62.010000000000105" as="sourcePoint"/>
                        <mxPoint x="100" y="90" as="targetPoint"/>
                        <Array as="points">
                            <mxPoint x="154" y="40"/>
                            <mxPoint x="104" y="40"/>
                            <mxPoint x="104" y="91"/>
                        </Array>
                    </mxGeometry>
                </mxCell>
                <mxCell id="321" value="" style="edgeStyle=segmentEdgeStyle;endArrow=classic;html=1;curved=0;rounded=0;endSize=8;startSize=8;sourcePerimeterSpacing=0;targetPerimeterSpacing=0;exitX=0.728;exitY=1.067;exitDx=0;exitDy=0;exitPerimeter=0;entryX=0.035;entryY=0;entryDx=0;entryDy=0;entryPerimeter=0;" edge="1" parent="1" source="282" target="294">
                    <mxGeometry width="100" relative="1" as="geometry">
                        <mxPoint x="174.34000000000015" y="42.00999999999999" as="sourcePoint"/>
                        <mxPoint x="140" y="80" as="targetPoint"/>
                        <Array as="points">
                            <mxPoint x="211" y="50"/>
                            <mxPoint x="104" y="50"/>
                            <mxPoint x="104" y="89"/>
                        </Array>
                    </mxGeometry>
                </mxCell>
                <mxCell id="322" value="" style="edgeStyle=segmentEdgeStyle;endArrow=classic;html=1;curved=0;rounded=0;endSize=8;startSize=8;sourcePerimeterSpacing=0;targetPerimeterSpacing=0;exitX=0.42;exitY=1.067;exitDx=0;exitDy=0;exitPerimeter=0;entryX=0.036;entryY=0.017;entryDx=0;entryDy=0;entryPerimeter=0;" edge="1" parent="1" source="278" target="294">
                    <mxGeometry width="100" relative="1" as="geometry">
                        <mxPoint x="360" y="60" as="sourcePoint"/>
                        <mxPoint x="210" y="80" as="targetPoint"/>
                        <Array as="points">
                            <mxPoint x="440" y="60"/>
                            <mxPoint x="104" y="60"/>
                            <mxPoint x="104" y="88"/>
                            <mxPoint x="105" y="88"/>
                        </Array>
                    </mxGeometry>
                </mxCell>
                <mxCell id="323" value="" style="edgeStyle=segmentEdgeStyle;endArrow=classic;html=1;curved=0;rounded=0;endSize=8;startSize=8;sourcePerimeterSpacing=0;targetPerimeterSpacing=0;exitX=0.631;exitY=1.089;exitDx=0;exitDy=0;exitPerimeter=0;entryX=0.036;entryY=0.022;entryDx=0;entryDy=0;entryPerimeter=0;" edge="1" parent="1" source="278" target="294">
                    <mxGeometry width="100" relative="1" as="geometry">
                        <mxPoint x="480" y="60" as="sourcePoint"/>
                        <mxPoint x="114.47999999999999" y="90" as="targetPoint"/>
                        <Array as="points">
                            <mxPoint x="520" y="70"/>
                            <mxPoint x="105" y="70"/>
                        </Array>
                    </mxGeometry>
                </mxCell>
                <mxCell id="326" value="" style="edgeStyle=segmentEdgeStyle;endArrow=classic;html=1;curved=0;rounded=0;endSize=8;startSize=8;sourcePerimeterSpacing=0;targetPerimeterSpacing=0;entryX=0;entryY=0.5;entryDx=0;entryDy=0;exitX=0.39;exitY=-0.022;exitDx=0;exitDy=0;exitPerimeter=0;" edge="1" parent="1" source="287" target="294">
                    <mxGeometry width="100" relative="1" as="geometry">
                        <mxPoint x="-95.65999999999985" y="122.00999999999999" as="sourcePoint"/>
                        <mxPoint x="-170" y="170" as="targetPoint"/>
                        <Array as="points">
                            <mxPoint x="-268" y="60"/>
                            <mxPoint x="40" y="60"/>
                            <mxPoint x="40" y="105"/>
                        </Array>
                    </mxGeometry>
                </mxCell>
                <mxCell id="327" value="" style="edgeStyle=segmentEdgeStyle;endArrow=classic;html=1;curved=0;rounded=0;endSize=8;startSize=8;sourcePerimeterSpacing=0;targetPerimeterSpacing=0;entryX=0;entryY=0;entryDx=0;entryDy=0;exitX=0.36;exitY=1.089;exitDx=0;exitDy=0;exitPerimeter=0;" edge="1" parent="1" source="295" target="296">
                    <mxGeometry width="100" relative="1" as="geometry">
                        <mxPoint x="-150" y="130" as="sourcePoint"/>
                        <mxPoint x="-208.16999999999274" y="157.99" as="targetPoint"/>
                        <Array as="points">
                            <mxPoint x="-520" y="123"/>
                            <mxPoint x="-520" y="138"/>
                            <mxPoint x="-350" y="138"/>
                        </Array>
                    </mxGeometry>
                </mxCell>
                <mxCell id="328" value="" style="edgeStyle=segmentEdgeStyle;endArrow=classic;html=1;curved=0;rounded=0;endSize=8;startSize=8;sourcePerimeterSpacing=0;targetPerimeterSpacing=0;entryX=0;entryY=0;entryDx=0;entryDy=0;exitX=0.727;exitY=1.067;exitDx=0;exitDy=0;exitPerimeter=0;" edge="1" parent="1" source="287">
                    <mxGeometry width="100" relative="1" as="geometry">
                        <mxPoint x="-290" y="140" as="sourcePoint"/>
                        <mxPoint x="-330" y="170" as="targetPoint"/>
                        <Array as="points">
                            <mxPoint x="-214" y="130"/>
                            <mxPoint x="-330" y="130"/>
                        </Array>
                    </mxGeometry>
                </mxCell>
                <mxCell id="329" value="" style="edgeStyle=segmentEdgeStyle;endArrow=classic;html=1;curved=0;rounded=0;endSize=8;startSize=8;sourcePerimeterSpacing=0;targetPerimeterSpacing=0;entryX=0;entryY=0;entryDx=0;entryDy=0;exitX=0.446;exitY=1.044;exitDx=0;exitDy=0;exitPerimeter=0;" edge="1" parent="1" source="293">
                    <mxGeometry width="100" relative="1" as="geometry">
                        <mxPoint x="-199.68000000000006" y="122.00999999999999" as="sourcePoint"/>
                        <mxPoint x="-316" y="170" as="targetPoint"/>
                        <Array as="points">
                            <mxPoint x="-96" y="140"/>
                            <mxPoint x="-316" y="140"/>
                        </Array>
                    </mxGeometry>
                </mxCell>
                <mxCell id="330" value="" style="edgeStyle=segmentEdgeStyle;endArrow=classic;html=1;curved=0;rounded=0;endSize=8;startSize=8;sourcePerimeterSpacing=0;targetPerimeterSpacing=0;entryX=0;entryY=0.5;entryDx=0;entryDy=0;exitX=0.271;exitY=-0.022;exitDx=0;exitDy=0;exitPerimeter=0;" edge="1" parent="1" source="293">
                    <mxGeometry width="100" relative="1" as="geometry">
                        <mxPoint x="-149" y="89" as="sourcePoint"/>
                        <mxPoint x="81" y="105" as="targetPoint"/>
                        <Array as="points">
                            <mxPoint x="-133" y="70"/>
                            <mxPoint x="40" y="70"/>
                            <mxPoint x="40" y="105"/>
                        </Array>
                    </mxGeometry>
                </mxCell>
                <mxCell id="331" value="" style="edgeStyle=segmentEdgeStyle;endArrow=classic;html=1;curved=0;rounded=0;endSize=8;startSize=8;sourcePerimeterSpacing=0;targetPerimeterSpacing=0;entryX=0;entryY=0.5;entryDx=0;entryDy=0;" edge="1" parent="1" source="295">
                    <mxGeometry width="100" relative="1" as="geometry">
                        <mxPoint x="-267.60000000000014" y="89.34000000000015" as="sourcePoint"/>
                        <mxPoint x="80" y="105" as="targetPoint"/>
                        <Array as="points">
                            <mxPoint x="-480" y="50"/>
                            <mxPoint x="40" y="50"/>
                            <mxPoint x="40" y="105"/>
                        </Array>
                    </mxGeometry>
                </mxCell>
                <mxCell id="332" value="" style="edgeStyle=segmentEdgeStyle;endArrow=classic;html=1;curved=0;rounded=0;endSize=8;startSize=8;sourcePerimeterSpacing=0;targetPerimeterSpacing=0;entryX=0;entryY=0.5;entryDx=0;entryDy=0;exitX=0.38;exitY=-0.022;exitDx=0;exitDy=0;exitPerimeter=0;" edge="1" parent="1" source="288" target="294">
                    <mxGeometry width="100" relative="1" as="geometry">
                        <mxPoint x="-78.39999999999986" y="-69.99999999999991" as="sourcePoint"/>
                        <mxPoint x="90" y="-22.669999999999987" as="targetPoint"/>
                        <Array as="points">
                            <mxPoint x="-53" y="-70"/>
                            <mxPoint x="40" y="-70"/>
                            <mxPoint x="40" y="105"/>
                        </Array>
                    </mxGeometry>
                </mxCell>
                <mxCell id="333" value="" style="edgeStyle=segmentEdgeStyle;endArrow=classic;html=1;curved=0;rounded=0;endSize=8;startSize=8;sourcePerimeterSpacing=0;targetPerimeterSpacing=0;entryX=0;entryY=0.5;entryDx=0;entryDy=0;exitX=0.688;exitY=1;exitDx=0;exitDy=0;exitPerimeter=0;" edge="1" parent="1" source="283">
                    <mxGeometry width="100" relative="1" as="geometry">
                        <mxPoint x="-53" y="-50.159999999999854" as="sourcePoint"/>
                        <mxPoint x="80" y="105.5" as="targetPoint"/>
                        <Array as="points">
                            <mxPoint x="7" y="30"/>
                            <mxPoint x="40" y="30"/>
                            <mxPoint x="40" y="106"/>
                        </Array>
                    </mxGeometry>
                </mxCell>
                <mxCell id="334" value="" style="edgeStyle=segmentEdgeStyle;endArrow=classic;html=1;curved=0;rounded=0;endSize=8;startSize=8;sourcePerimeterSpacing=0;targetPerimeterSpacing=0;exitX=0.74;exitY=0.022;exitDx=0;exitDy=0;exitPerimeter=0;entryX=0.054;entryY=1.111;entryDx=0;entryDy=0;entryPerimeter=0;" edge="1" parent="1" source="288" target="303">
                    <mxGeometry width="100" relative="1" as="geometry">
                        <mxPoint x="-72.76000000000005" y="-70.00000000000001" as="sourcePoint"/>
                        <mxPoint x="-180.00000000000028" y="-12.010000000000005" as="targetPoint"/>
                        <Array as="points">
                            <mxPoint x="1" y="-60"/>
                            <mxPoint x="-680" y="-60"/>
                            <mxPoint x="-680" y="-77"/>
                        </Array>
                    </mxGeometry>
                </mxCell>
                <mxCell id="335" value="" style="edgeStyle=segmentEdgeStyle;endArrow=none;html=1;curved=0;rounded=0;endSize=8;startSize=8;sourcePerimeterSpacing=0;targetPerimeterSpacing=0;exitX=0.41;exitY=1;exitDx=0;exitDy=0;exitPerimeter=0;endFill=0;" edge="1" parent="1" source="283">
                    <mxGeometry width="100" relative="1" as="geometry">
                        <mxPoint x="-40" y="20" as="sourcePoint"/>
                        <mxPoint x="-680" y="-70" as="targetPoint"/>
                        <Array as="points">
                            <mxPoint x="-40" y="20"/>
                            <mxPoint x="-680" y="20"/>
                            <mxPoint x="-680" y="-76"/>
                        </Array>
                    </mxGeometry>
                </mxCell>
                <mxCell id="336" value="" style="edgeStyle=segmentEdgeStyle;endArrow=none;html=1;curved=0;rounded=0;endSize=8;startSize=8;sourcePerimeterSpacing=0;targetPerimeterSpacing=0;exitX=0.65;exitY=-0.067;exitDx=0;exitDy=0;exitPerimeter=0;entryX=0.05;entryY=1.044;entryDx=0;entryDy=0;entryPerimeter=0;endFill=0;" edge="1" parent="1" source="291" target="303">
                    <mxGeometry width="100" relative="1" as="geometry">
                        <mxPoint x="-653.5" y="20" as="sourcePoint"/>
                        <mxPoint x="-640" y="-70" as="targetPoint"/>
                        <Array as="points">
                            <mxPoint x="-641" y="30"/>
                            <mxPoint x="-680" y="30"/>
                            <mxPoint x="-680" y="-79"/>
                        </Array>
                    </mxGeometry>
                </mxCell>
                <mxCell id="337" value="" style="edgeStyle=segmentEdgeStyle;endArrow=classic;html=1;curved=0;rounded=0;endSize=8;startSize=8;sourcePerimeterSpacing=0;targetPerimeterSpacing=0;entryX=0;entryY=0.5;entryDx=0;entryDy=0;exitX=0.809;exitY=1.044;exitDx=0;exitDy=0;exitPerimeter=0;" edge="1" parent="1" source="291" target="296">
                    <mxGeometry width="100" relative="1" as="geometry">
                        <mxPoint x="-678.3999999999999" y="132.67000000000007" as="sourcePoint"/>
                        <mxPoint x="-510" y="180" as="targetPoint"/>
                        <Array as="points">
                            <mxPoint x="-600" y="90"/>
                            <mxPoint x="-650" y="90"/>
                            <mxPoint x="-650" y="185"/>
                        </Array>
                    </mxGeometry>
                </mxCell>
            </root>
        </mxGraphModel>
    </diagram>
</mxfile>